<mxfile host="app.diagrams.net" modified="2022-04-06T18:25:44.991Z" agent="5.0 (Windows NT 10.0; Win64; x64) AppleWebKit/537.36 (KHTML, like Gecko) Chrome/99.0.4844.82 Safari/537.36" etag="GQ-BUxZvyxOJp8Fu0idh" version="17.3.0" type="github">
  <diagram id="C5RBs43oDa-KdzZeNtuy" name="Page-1">
    <mxGraphModel dx="782" dy="1875" grid="1" gridSize="10" guides="1" tooltips="1" connect="1" arrows="1" fold="1" page="1" pageScale="1" pageWidth="827" pageHeight="1169" math="0" shadow="0">
      <root>
        <mxCell id="WIyWlLk6GJQsqaUBKTNV-0" />
        <mxCell id="WIyWlLk6GJQsqaUBKTNV-1" parent="WIyWlLk6GJQsqaUBKTNV-0" />
        <mxCell id="aSZAhxSPqSsWb4NRJgwL-38" style="edgeStyle=orthogonalEdgeStyle;rounded=0;orthogonalLoop=1;jettySize=auto;html=1;entryX=0.5;entryY=0;entryDx=0;entryDy=0;endArrow=none;endFill=0;" parent="WIyWlLk6GJQsqaUBKTNV-1" source="aSZAhxSPqSsWb4NRJgwL-26" target="aSZAhxSPqSsWb4NRJgwL-32" edge="1">
          <mxGeometry relative="1" as="geometry" />
        </mxCell>
        <mxCell id="aSZAhxSPqSsWb4NRJgwL-26" value="" style="shape=hexagon;perimeter=hexagonPerimeter2;whiteSpace=wrap;html=1;fixedSize=1;" parent="WIyWlLk6GJQsqaUBKTNV-1" vertex="1">
          <mxGeometry x="390" y="290" width="240" height="100" as="geometry" />
        </mxCell>
        <mxCell id="aSZAhxSPqSsWb4NRJgwL-11" value="" style="edgeStyle=orthogonalEdgeStyle;rounded=0;orthogonalLoop=1;jettySize=auto;html=1;" parent="WIyWlLk6GJQsqaUBKTNV-1" source="aSZAhxSPqSsWb4NRJgwL-2" target="aSZAhxSPqSsWb4NRJgwL-10" edge="1">
          <mxGeometry relative="1" as="geometry" />
        </mxCell>
        <mxCell id="aSZAhxSPqSsWb4NRJgwL-2" value="START" style="ellipse;whiteSpace=wrap;html=1;" parent="WIyWlLk6GJQsqaUBKTNV-1" vertex="1">
          <mxGeometry x="170" y="-10" width="120" height="60" as="geometry" />
        </mxCell>
        <mxCell id="aSZAhxSPqSsWb4NRJgwL-8" value="" style="edgeStyle=orthogonalEdgeStyle;rounded=0;orthogonalLoop=1;jettySize=auto;html=1;" parent="WIyWlLk6GJQsqaUBKTNV-1" source="aSZAhxSPqSsWb4NRJgwL-4" target="aSZAhxSPqSsWb4NRJgwL-7" edge="1">
          <mxGeometry relative="1" as="geometry" />
        </mxCell>
        <mxCell id="aSZAhxSPqSsWb4NRJgwL-4" value="Wczytaj n archetypów" style="shape=parallelogram;perimeter=parallelogramPerimeter;whiteSpace=wrap;html=1;fixedSize=1;" parent="WIyWlLk6GJQsqaUBKTNV-1" vertex="1">
          <mxGeometry x="160" y="150" width="140" height="60" as="geometry" />
        </mxCell>
        <mxCell id="aSZAhxSPqSsWb4NRJgwL-14" value="T" style="edgeStyle=orthogonalEdgeStyle;rounded=0;orthogonalLoop=1;jettySize=auto;html=1;" parent="WIyWlLk6GJQsqaUBKTNV-1" source="aSZAhxSPqSsWb4NRJgwL-6" target="aSZAhxSPqSsWb4NRJgwL-13" edge="1">
          <mxGeometry x="0.2" y="10" relative="1" as="geometry">
            <mxPoint as="offset" />
          </mxGeometry>
        </mxCell>
        <mxCell id="aSZAhxSPqSsWb4NRJgwL-27" value="N" style="edgeStyle=orthogonalEdgeStyle;rounded=0;orthogonalLoop=1;jettySize=auto;html=1;endArrow=none;endFill=0;" parent="WIyWlLk6GJQsqaUBKTNV-1" source="aSZAhxSPqSsWb4NRJgwL-6" target="aSZAhxSPqSsWb4NRJgwL-26" edge="1">
          <mxGeometry x="-0.4286" y="10" relative="1" as="geometry">
            <mxPoint as="offset" />
          </mxGeometry>
        </mxCell>
        <mxCell id="aSZAhxSPqSsWb4NRJgwL-6" value="i&amp;lt;n" style="rhombus;whiteSpace=wrap;html=1;" parent="WIyWlLk6GJQsqaUBKTNV-1" vertex="1">
          <mxGeometry x="190" y="300" width="80" height="80" as="geometry" />
        </mxCell>
        <mxCell id="aSZAhxSPqSsWb4NRJgwL-9" value="" style="edgeStyle=orthogonalEdgeStyle;rounded=0;orthogonalLoop=1;jettySize=auto;html=1;" parent="WIyWlLk6GJQsqaUBKTNV-1" source="aSZAhxSPqSsWb4NRJgwL-7" target="aSZAhxSPqSsWb4NRJgwL-6" edge="1">
          <mxGeometry relative="1" as="geometry" />
        </mxCell>
        <mxCell id="aSZAhxSPqSsWb4NRJgwL-7" value="i = 0" style="rounded=0;whiteSpace=wrap;html=1;" parent="WIyWlLk6GJQsqaUBKTNV-1" vertex="1">
          <mxGeometry x="170" y="240" width="120" height="30" as="geometry" />
        </mxCell>
        <mxCell id="aSZAhxSPqSsWb4NRJgwL-12" value="" style="edgeStyle=orthogonalEdgeStyle;rounded=0;orthogonalLoop=1;jettySize=auto;html=1;" parent="WIyWlLk6GJQsqaUBKTNV-1" source="aSZAhxSPqSsWb4NRJgwL-10" target="aSZAhxSPqSsWb4NRJgwL-4" edge="1">
          <mxGeometry relative="1" as="geometry" />
        </mxCell>
        <mxCell id="aSZAhxSPqSsWb4NRJgwL-10" value="Wczytaj listę m klas" style="shape=parallelogram;perimeter=parallelogramPerimeter;whiteSpace=wrap;html=1;fixedSize=1;" parent="WIyWlLk6GJQsqaUBKTNV-1" vertex="1">
          <mxGeometry x="165" y="70" width="130" height="60" as="geometry" />
        </mxCell>
        <mxCell id="aSZAhxSPqSsWb4NRJgwL-18" value="" style="edgeStyle=orthogonalEdgeStyle;rounded=0;orthogonalLoop=1;jettySize=auto;html=1;" parent="WIyWlLk6GJQsqaUBKTNV-1" source="aSZAhxSPqSsWb4NRJgwL-13" target="aSZAhxSPqSsWb4NRJgwL-17" edge="1">
          <mxGeometry relative="1" as="geometry" />
        </mxCell>
        <mxCell id="aSZAhxSPqSsWb4NRJgwL-13" value="Przypisz archetyp[i] do odpowiadającej klasy" style="whiteSpace=wrap;html=1;" parent="WIyWlLk6GJQsqaUBKTNV-1" vertex="1">
          <mxGeometry x="170" y="410" width="120" height="60" as="geometry" />
        </mxCell>
        <mxCell id="aSZAhxSPqSsWb4NRJgwL-17" value="i++" style="whiteSpace=wrap;html=1;" parent="WIyWlLk6GJQsqaUBKTNV-1" vertex="1">
          <mxGeometry x="170" y="490" width="120" height="30" as="geometry" />
        </mxCell>
        <mxCell id="aSZAhxSPqSsWb4NRJgwL-23" value="" style="endArrow=classic;html=1;rounded=0;exitX=0.5;exitY=1;exitDx=0;exitDy=0;" parent="WIyWlLk6GJQsqaUBKTNV-1" edge="1" source="aSZAhxSPqSsWb4NRJgwL-17">
          <mxGeometry width="50" height="50" relative="1" as="geometry">
            <mxPoint x="80" y="280" as="sourcePoint" />
            <mxPoint x="230" y="280" as="targetPoint" />
            <Array as="points">
              <mxPoint x="230" y="560" />
              <mxPoint x="80" y="560" />
              <mxPoint x="80" y="280" />
            </Array>
          </mxGeometry>
        </mxCell>
        <mxCell id="aSZAhxSPqSsWb4NRJgwL-29" value="T" style="edgeStyle=orthogonalEdgeStyle;rounded=0;orthogonalLoop=1;jettySize=auto;html=1;entryX=0.5;entryY=0;entryDx=0;entryDy=0;" parent="WIyWlLk6GJQsqaUBKTNV-1" source="aSZAhxSPqSsWb4NRJgwL-30" target="aSZAhxSPqSsWb4NRJgwL-42" edge="1">
          <mxGeometry x="0.2" y="10" relative="1" as="geometry">
            <mxPoint as="offset" />
            <mxPoint x="510" y="660" as="targetPoint" />
          </mxGeometry>
        </mxCell>
        <mxCell id="aSZAhxSPqSsWb4NRJgwL-30" value="j&amp;lt;l" style="rhombus;whiteSpace=wrap;html=1;" parent="WIyWlLk6GJQsqaUBKTNV-1" vertex="1">
          <mxGeometry x="470" y="550" width="80" height="80" as="geometry" />
        </mxCell>
        <mxCell id="aSZAhxSPqSsWb4NRJgwL-31" value="" style="edgeStyle=orthogonalEdgeStyle;rounded=0;orthogonalLoop=1;jettySize=auto;html=1;" parent="WIyWlLk6GJQsqaUBKTNV-1" source="aSZAhxSPqSsWb4NRJgwL-32" target="aSZAhxSPqSsWb4NRJgwL-30" edge="1">
          <mxGeometry relative="1" as="geometry" />
        </mxCell>
        <mxCell id="aSZAhxSPqSsWb4NRJgwL-44" style="edgeStyle=orthogonalEdgeStyle;rounded=0;orthogonalLoop=1;jettySize=auto;html=1;entryX=0.5;entryY=0;entryDx=0;entryDy=0;endArrow=none;endFill=0;exitX=1;exitY=0.5;exitDx=0;exitDy=0;" parent="WIyWlLk6GJQsqaUBKTNV-1" source="aSZAhxSPqSsWb4NRJgwL-30" target="aSZAhxSPqSsWb4NRJgwL-43" edge="1">
          <mxGeometry relative="1" as="geometry" />
        </mxCell>
        <mxCell id="aSZAhxSPqSsWb4NRJgwL-46" value="N" style="edgeLabel;html=1;align=center;verticalAlign=middle;resizable=0;points=[];" parent="aSZAhxSPqSsWb4NRJgwL-44" vertex="1" connectable="0">
          <mxGeometry x="-0.4235" y="-1" relative="1" as="geometry">
            <mxPoint x="-29" y="-11" as="offset" />
          </mxGeometry>
        </mxCell>
        <mxCell id="aSZAhxSPqSsWb4NRJgwL-32" value="j = 0" style="rounded=0;whiteSpace=wrap;html=1;" parent="WIyWlLk6GJQsqaUBKTNV-1" vertex="1">
          <mxGeometry x="450" y="490" width="120" height="30" as="geometry" />
        </mxCell>
        <mxCell id="aSZAhxSPqSsWb4NRJgwL-33" value="" style="edgeStyle=orthogonalEdgeStyle;rounded=0;orthogonalLoop=1;jettySize=auto;html=1;exitX=0.5;exitY=1;exitDx=0;exitDy=0;" parent="WIyWlLk6GJQsqaUBKTNV-1" source="aSZAhxSPqSsWb4NRJgwL-42" target="aSZAhxSPqSsWb4NRJgwL-36" edge="1">
          <mxGeometry relative="1" as="geometry">
            <mxPoint x="510" y="720" as="sourcePoint" />
          </mxGeometry>
        </mxCell>
        <mxCell id="aSZAhxSPqSsWb4NRJgwL-35" style="edgeStyle=orthogonalEdgeStyle;rounded=0;orthogonalLoop=1;jettySize=auto;html=1;endArrow=none;endFill=0;" parent="WIyWlLk6GJQsqaUBKTNV-1" source="aSZAhxSPqSsWb4NRJgwL-36" edge="1">
          <mxGeometry relative="1" as="geometry">
            <mxPoint x="330" y="530" as="targetPoint" />
            <Array as="points">
              <mxPoint x="510" y="790" />
              <mxPoint x="330" y="790" />
            </Array>
          </mxGeometry>
        </mxCell>
        <mxCell id="aSZAhxSPqSsWb4NRJgwL-36" value="j++" style="whiteSpace=wrap;html=1;" parent="WIyWlLk6GJQsqaUBKTNV-1" vertex="1">
          <mxGeometry x="450" y="740" width="120" height="30" as="geometry" />
        </mxCell>
        <mxCell id="aSZAhxSPqSsWb4NRJgwL-37" value="" style="endArrow=classic;html=1;rounded=0;" parent="WIyWlLk6GJQsqaUBKTNV-1" edge="1">
          <mxGeometry width="50" height="50" relative="1" as="geometry">
            <mxPoint x="330" y="530" as="sourcePoint" />
            <mxPoint x="510" y="530" as="targetPoint" />
          </mxGeometry>
        </mxCell>
        <mxCell id="aSZAhxSPqSsWb4NRJgwL-40" value="STOP" style="ellipse;whiteSpace=wrap;html=1;" parent="WIyWlLk6GJQsqaUBKTNV-1" vertex="1">
          <mxGeometry x="640" y="725" width="120" height="60" as="geometry" />
        </mxCell>
        <mxCell id="aSZAhxSPqSsWb4NRJgwL-42" value="Wpisz wszystkie możliwe kombinacje talii, pasujące do szablonu, do nowej listy" style="shape=hexagon;perimeter=hexagonPerimeter2;whiteSpace=wrap;html=1;fixedSize=1;" parent="WIyWlLk6GJQsqaUBKTNV-1" vertex="1">
          <mxGeometry x="415" y="660" width="190" height="60" as="geometry" />
        </mxCell>
        <mxCell id="aSZAhxSPqSsWb4NRJgwL-45" value="" style="edgeStyle=orthogonalEdgeStyle;rounded=0;orthogonalLoop=1;jettySize=auto;html=1;endArrow=none;endFill=0;" parent="WIyWlLk6GJQsqaUBKTNV-1" source="aSZAhxSPqSsWb4NRJgwL-43" target="aSZAhxSPqSsWb4NRJgwL-40" edge="1">
          <mxGeometry relative="1" as="geometry" />
        </mxCell>
        <mxCell id="aSZAhxSPqSsWb4NRJgwL-43" value="Lista wszystkich możliwych zestawień turniejowych" style="shape=parallelogram;perimeter=parallelogramPerimeter;whiteSpace=wrap;html=1;fixedSize=1;" parent="WIyWlLk6GJQsqaUBKTNV-1" vertex="1">
          <mxGeometry x="610" y="610" width="180" height="60" as="geometry" />
        </mxCell>
        <mxCell id="aSZAhxSPqSsWb4NRJgwL-47" value="Trzyelementowe kombinacje bez powtórzeń elementów ze zbioru m klas zapisane do nowej listy a, o długości l" style="rounded=0;whiteSpace=wrap;html=1;" parent="WIyWlLk6GJQsqaUBKTNV-1" vertex="1">
          <mxGeometry x="390" y="150" width="240" height="90" as="geometry" />
        </mxCell>
        <mxCell id="aSZAhxSPqSsWb4NRJgwL-48" value="" style="endArrow=none;dashed=1;html=1;rounded=0;entryX=0.5;entryY=1;entryDx=0;entryDy=0;exitX=0.5;exitY=0;exitDx=0;exitDy=0;" parent="WIyWlLk6GJQsqaUBKTNV-1" source="aSZAhxSPqSsWb4NRJgwL-26" target="aSZAhxSPqSsWb4NRJgwL-47" edge="1">
          <mxGeometry width="50" height="50" relative="1" as="geometry">
            <mxPoint x="410" y="380" as="sourcePoint" />
            <mxPoint x="460" y="330" as="targetPoint" />
          </mxGeometry>
        </mxCell>
      </root>
    </mxGraphModel>
  </diagram>
</mxfile>
